<mxfile host="app.diagrams.net" modified="2024-01-21T01:47:44.107Z" agent="Mozilla/5.0 (Windows NT 10.0; Win64; x64) AppleWebKit/537.36 (KHTML, like Gecko) Chrome/120.0.0.0 Safari/537.36" version="22.1.21" etag="KGNv_fO2zRVPQ5enYuUL" type="github">
  <diagram name="第 1 页" id="qp3Vu-rCAASt0b9XC4gR">
    <mxGraphModel>
      <root>
        <mxCell id="0" />
        <mxCell id="1" parent="0" />
      </root>
    </mxGraphModel>
  </diagram>
</mxfile>
